<svg width="13" height="28" viewBox="0 0 13 28" fill="none" xmlns="http://www.w3.org/2000/svg">
<path d="M1.00003 19.2631C1.00003 20.6589 1.57943 21.9975 2.61078 22.9845C3.64213 23.9715 5.04092 24.5261 6.49946 24.5261M6.49946 24.5261C7.95801 24.5261 9.35684 23.9715 10.3882 22.9845C11.4195 21.9975 11.9989 20.6589 11.9989 19.2631C12.0164 18.4492 11.8243 17.6437 11.4396 16.9177C11.0549 16.1918 10.4893 15.5676 9.79291 15.1002C7.6242 13.8454 4.62903 14.22 2.72752 12.5251C2.18714 12.0406 1.75536 11.456 1.45839 10.8068C1.16141 10.1576 1.00547 9.45749 1.00003 8.74884C1.00003 7.35245 1.57923 6.01314 2.6104 5.02519C3.64157 4.03723 5.04035 3.48145 6.49946 3.47987C7.95858 3.48145 9.35736 4.03723 10.3885 5.02519C11.4197 6.01314 11.9989 7.35245 11.9989 8.74884M6.49946 24.5261L6.49947 27M6.49947 1V3.47392" stroke="#093030" stroke-width="2" stroke-linecap="round" stroke-linejoin="round"/>
</svg>
