<svg width="23" height="22" viewBox="0 0 23 22" fill="none" xmlns="http://www.w3.org/2000/svg">
<path d="M11.4902 1H11.5068C11.7008 0.9981 11.8923 1.04631 12.0615 1.13965C12.1884 1.20966 12.2995 1.3036 12.3896 1.41504L12.4727 1.53125L12.4785 1.54102L14.8672 5.3291L14.8711 5.33496C15.3072 6.01571 15.9862 6.50491 16.7695 6.7041L16.7725 6.70508L21.126 7.79688H21.127C21.3172 7.84447 21.4919 7.93935 21.6348 8.07227C21.7777 8.20525 21.8843 8.37238 21.9443 8.55664C22.0043 8.74072 22.0164 8.93702 21.9795 9.12695C21.9425 9.31708 21.8568 9.4954 21.7314 9.64453L21.7305 9.64551L18.8545 13.0801C18.3342 13.701 18.0733 14.4983 18.126 15.3066V15.3096L18.4277 19.7725C18.438 19.9288 18.4161 20.0857 18.3633 20.2334C18.3103 20.3813 18.2272 20.5175 18.1191 20.6328C18.0112 20.748 17.8799 20.8401 17.7344 20.9033C17.589 20.9664 17.4322 20.9985 17.2734 20.999C17.1615 20.9987 17.0504 20.984 16.9434 20.9531L16.8369 20.917L12.6738 19.251L12.667 19.249L12.3838 19.1523C12.097 19.0698 11.7994 19.0282 11.5 19.0273V19.0264L11.4922 19.0273C11.0954 19.0293 10.7025 19.1043 10.333 19.249L10.3262 19.251L6.16309 20.917C6.02393 20.9718 5.87542 20.9988 5.72559 20.999C5.56698 20.9984 5.4098 20.9664 5.26465 20.9033C5.11927 20.8401 4.98874 20.7479 4.88086 20.6328C4.77282 20.5175 4.68965 20.3813 4.63672 20.2334C4.58389 20.0857 4.56199 19.9288 4.57227 19.7725L4.87402 15.3096V15.3066C4.92671 14.4981 4.66517 13.701 4.14453 13.0801H4.14551L1.26953 9.64551L1.26855 9.64453L1.18164 9.52734C1.10322 9.4055 1.04824 9.26945 1.02051 9.12695C0.983627 8.93717 0.996567 8.74103 1.05664 8.55664C1.11676 8.37218 1.22249 8.2051 1.36523 8.07227C1.50797 7.93946 1.68274 7.84451 1.87305 7.79688H1.87402L6.22754 6.70508L6.22852 6.7041C6.91552 6.53074 7.52225 6.13332 7.95312 5.57812L8.12695 5.33008L10.5205 1.54199L10.5273 1.53125C10.6276 1.36843 10.7689 1.23389 10.9375 1.14062C11.1063 1.04728 11.2968 0.998585 11.4902 1Z" fill="#00D09E" stroke="#093030" stroke-width="2"/>
</svg>
