<svg width="29" height="25" viewBox="0 0 29 25" fill="none" xmlns="http://www.w3.org/2000/svg">
<path d="M11.8104 17.8656H17.4749C17.9957 17.8641 18.4948 17.6566 18.8631 17.2883C19.2314 16.92 19.439 16.4209 19.4405 15.9001C19.4375 15.3802 19.2293 14.8826 18.8611 14.5155C18.493 14.1485 17.9948 13.9417 17.4749 13.9402H13.8836C13.0777 13.9306 12.2778 13.8008 11.5102 13.555C10.0884 13.2491 7.78871 13.2321 6.73512 15.9001H4.46934M19.4121 15.9001L24.5101 12.8979C24.955 12.6284 25.4887 12.5461 25.9941 12.6693C26.4995 12.7925 26.9354 13.111 27.2064 13.555C27.475 13.9996 27.5573 14.5322 27.4353 15.0371C27.3133 15.542 26.997 15.9783 26.555 16.2513L19.888 21.27C18.6994 22.1645 17.2518 22.6476 15.7642 22.6464H4.43532M17.5203 7.01254L16.1324 8.40601C16.1239 8.41475 16.1138 8.4217 16.1026 8.42644C16.0914 8.43119 16.0794 8.4336 16.0672 8.4336C16.0551 8.4336 16.0432 8.43119 16.032 8.42644C16.0208 8.4217 16.0105 8.41475 16.0021 8.40601L15.1468 7.00687H11.4083C11.0795 7.86228 10.4991 8.59791 9.74367 9.1167C8.98825 9.63548 8.09337 9.91303 7.17696 9.91274C5.97512 9.91274 4.82242 9.43531 3.97259 8.58548C3.12276 7.73565 2.6454 6.58302 2.6454 5.38118C2.6454 4.17933 3.12276 3.02671 3.97259 2.17687C4.82242 1.32704 5.97512 0.849611 7.17696 0.849611C8.0927 0.84888 8.98708 1.12562 9.74242 1.64334C10.4978 2.16106 11.0786 2.89547 11.4083 3.74981H19.7407L21.8705 5.55677L19.0383 8.48529L17.5203 7.04086M4.44666 14.8975C4.44666 14.8163 4.41441 14.7385 4.35704 14.6812C4.29968 14.6238 4.22188 14.5916 4.14075 14.5916H1.15557C1.07445 14.5916 0.996648 14.6238 0.939284 14.6812C0.88192 14.7385 0.84967 14.8163 0.84967 14.8975V23.6377C0.84967 23.7188 0.88192 23.7966 0.939284 23.854C0.996648 23.9114 1.07445 23.9436 1.15557 23.9436H4.14075C4.22188 23.9436 4.29968 23.9114 4.35704 23.854C4.41441 23.7966 4.44666 23.7188 4.44666 23.6377V14.8975Z" stroke="currentColor" stroke-width="1.69934" stroke-linecap="round" stroke-linejoin="round"/>
</svg>

