<svg width="28" height="28" viewBox="0 0 28 28" fill="none" xmlns="http://www.w3.org/2000/svg">
<path d="M13.5664 5.1546V15.2543M8.41178 23.0373V24.9292C8.41178 25.3078 8.26141 25.6709 7.99372 25.9386C7.72602 26.2063 7.3629 26.3567 6.98432 26.3567H5.46062C5.08203 26.3567 4.71892 26.2063 4.45122 25.9386C4.18352 25.6709 4.03316 25.3078 4.03316 24.9292V20.9641M18.7381 23.0373V24.9292C18.7381 25.3078 18.8884 25.6709 19.1561 25.9386C19.4238 26.2063 19.7869 26.3567 20.1655 26.3567H21.6892C22.0678 26.3567 22.4309 26.2063 22.6986 25.9386C22.9663 25.6709 23.1167 25.3078 23.1167 24.9292V20.9641M11.4819 20.5676H15.6453M6.38955 17.5314C6.38955 17.5314 6.23094 19.5933 8.50805 19.3214M20.7376 17.5314C20.7376 17.5314 20.8962 19.5933 18.6191 19.3214M23.1394 6.81995H24.6631C24.8785 6.81995 25.0919 6.86248 25.2909 6.9451C25.4899 7.02773 25.6706 7.1488 25.8226 7.30141C25.9747 7.45403 26.0952 7.63516 26.1771 7.83443C26.259 8.0337 26.3009 8.2472 26.3002 8.46266V11.0343M4.01049 6.81995H2.48679C2.27133 6.81995 2.05792 6.86248 1.85894 6.9451C1.65995 7.02773 1.47929 7.1488 1.3272 7.30141C1.17512 7.45403 1.05469 7.63516 0.97276 7.83443C0.890826 8.0337 0.848935 8.2472 0.84968 8.46266V11.0343M6.18564 0.849609H20.9472C22.1485 0.849609 23.1224 1.82346 23.1224 3.02476V20.8678C23.1224 22.0691 22.1485 23.043 20.9472 23.043H6.18564C4.98434 23.043 4.01049 22.0691 4.01049 20.8678V3.02476C4.01049 1.82346 4.98434 0.849609 6.18564 0.849609ZM6.11201 5.1546H21.0152C21.5725 5.1546 22.1071 5.37601 22.5012 5.77012C22.8953 6.16423 23.1167 6.69875 23.1167 7.25611V15.2543H4.01049V7.25611C4.01049 6.69875 4.2319 6.16423 4.62601 5.77012C5.02012 5.37601 5.55465 5.1546 6.11201 5.1546Z" stroke="#F1FFF3" stroke-width="1.69934" stroke-linecap="round" stroke-linejoin="round"/>
</svg>
